<?xml version="1.0" standalone="no"?>
<!DOCTYPE svg PUBLIC "-//W3C//DTD SVG 20010904//EN"
 "http://www.w3.org/TR/2001/REC-SVG-20010904/DTD/svg10.dtd">
<svg version="1.0" xmlns="http://www.w3.org/2000/svg"
 width="260.000000pt" height="260.000000pt" viewBox="0 0 260.000000 260.000000"
 preserveAspectRatio="xMidYMid meet">
<metadata>
Created by potrace 1.11, written by Peter Selinger 2001-2013
</metadata>
<g transform="translate(0.000000,260.000000) scale(0.100000,-0.100000)"
fill="#000000" stroke="none">
<path d="M0 1300 l0 -1300 1300 0 1300 0 0 1300 0 1300 -1300 0 -1300 0 0
-1300z m790 748 c-15 -35 -67 -144 -114 -243 l-85 -180 105 -3 c61 -1 104 -7
104 -13 0 -5 -14 -46 -31 -89 l-30 -80 -230 0 c-126 0 -229 4 -229 9 0 4 50
113 110 241 61 128 110 234 110 236 0 2 -38 4 -85 4 -97 0 -97 -1 -64 82 12
29 25 63 30 76 8 22 10 22 223 22 l215 0 -29 -62z m438 -25 l-3 -88 -87 -3
-88 -3 0 -34 0 -35 85 0 85 0 0 -85 0 -85 -85 0 -85 0 0 -35 0 -35 90 0 90 0
0 -90 0 -90 -200 0 -200 0 0 335 0 335 200 0 201 0 -3 -87z m460 0 l-3 -88
-87 -3 -88 -3 0 -34 0 -35 85 0 85 0 0 -85 0 -85 -85 0 -85 0 0 -35 0 -35 90
0 90 0 0 -90 0 -90 -200 0 -200 0 0 335 0 335 200 0 201 0 -3 -87z m403 71
c70 -20 134 -71 160 -128 23 -52 25 -162 3 -214 -33 -79 -119 -136 -226 -148
l-58 -7 0 -78 0 -79 -110 0 -110 0 0 335 0 335 142 0 c100 0 159 -5 199 -16z
m172 -941 c4 -2 7 -44 7 -94 l0 -89 -50 0 c-75 0 -74 -18 5 -91 84 -79 108
-125 108 -204 0 -101 -44 -164 -138 -196 -42 -14 -184 -15 -245 -1 l-35 8 -3
103 c-2 92 -1 103 13 97 30 -11 123 -19 149 -12 44 11 31 39 -48 104 -93 76
-120 127 -114 212 6 90 57 145 155 169 35 9 178 4 196 -6z m-1773 -248 l0
-245 95 0 95 0 0 -90 0 -90 -205 0 -205 0 0 335 0 335 110 0 110 0 0 -245z
m738 -72 c66 -175 123 -326 127 -335 7 -17 -2 -18 -100 -18 l-107 0 -11 30
-11 30 -101 0 -101 0 -11 -30 -11 -30 -106 0 -106 0 24 63 c13 34 70 185 127
335 l103 272 81 0 82 0 121 -317z m539 290 c88 -47 119 -150 71 -236 -23 -41
-24 -45 -8 -55 28 -17 60 -94 60 -143 0 -56 -28 -117 -69 -152 -54 -45 -116
-57 -293 -57 l-158 0 0 336 0 336 178 -4 c160 -3 181 -5 219 -25z"/>
<path d="M1970 1855 l0 -77 28 6 c35 9 52 32 52 71 0 39 -17 62 -52 71 l-28 6
0 -77z"/>
<path d="M1003 744 l-21 -54 44 0 44 0 -21 53 c-11 28 -22 53 -23 54 -1 1 -11
-23 -23 -53z"/>
<path d="M1580 945 c0 -34 4 -45 16 -45 28 0 54 20 54 43 0 29 -18 47 -47 47
-21 0 -23 -5 -23 -45z"/>
<path d="M1580 695 c0 -54 0 -55 30 -55 31 0 70 30 70 53 0 30 -31 57 -66 57
l-34 0 0 -55z"/>
</g>
</svg>
