<?xml version="1.0" encoding="UTF-8" standalone="no"?>
<svg width="238px" height="169px" viewBox="0 0 238 169" version="1.1" xmlns="http://www.w3.org/2000/svg" xmlns:xlink="http://www.w3.org/1999/xlink">
    <!-- Generator: Sketch 3.7.2 (28276) - http://www.bohemiancoding.com/sketch -->
    <title>// Devices + Flat Apple Device Fa</title>
    <desc>Created with Sketch.</desc>
    <defs>
        <path d="M7.89941254,22.0463343 C8.953112,18.0371283 9.78786092,0.723860881 9.78786092,0.723860881 L52.8937478,0.723860881 C52.8937478,0.723860881 53.782234,17.968776 55.0431729,22.0463344 C56.3041117,26.1238927 59.7906897,28.2676954 61.8980886,29.8416288 L0.783520108,29.8416288 C2.89091902,28.2676954 6.84571308,26.0555404 7.89941254,22.0463343 Z" id="path-1"></path>
        <rect id="path-3" x="0" y="0" width="156.704022" height="6.29573361"></rect>
        <filter x="-50%" y="-50%" width="200%" height="200%" filterUnits="objectBoundingBox" id="filter-4">
            <feOffset dx="0" dy="-1" in="SourceAlpha" result="shadowOffsetInner1"></feOffset>
            <feComposite in="shadowOffsetInner1" in2="SourceAlpha" operator="arithmetic" k2="-1" k3="1" result="shadowInnerInner1"></feComposite>
            <feColorMatrix values="0 0 0 0 0.730203019   0 0 0 0 0.730203019   0 0 0 0 0.730203019  0 0 0 1 0" type="matrix" in="shadowInnerInner1"></feColorMatrix>
        </filter>
        <rect id="path-5" x="24.2891234" y="65.3182362" width="3.91760054" height="3.93483351" rx="4.712256"></rect>
        <mask id="mask-6" maskContentUnits="userSpaceOnUse" maskUnits="objectBoundingBox" x="0" y="0" width="3.91760054" height="3.93483351" fill="white">
            <use xlink:href="#path-5"></use>
        </mask>
        <rect id="path-7" x="12.9548688" y="50.9631004" width="3.2387172" height="3.25296385" rx="4.712256"></rect>
        <mask id="mask-8" maskContentUnits="userSpaceOnUse" maskUnits="objectBoundingBox" x="0" y="0" width="3.2387172" height="3.25296385" fill="white">
            <use xlink:href="#path-7"></use>
        </mask>
        <rect id="path-9" x="0" y="5.39634309" width="17.4613053" height="17.5381151" rx="2.356128"></rect>
        <mask id="mask-10" maskContentUnits="userSpaceOnUse" maskUnits="objectBoundingBox" x="0" y="0" width="17.4613053" height="17.5381151" fill="white">
            <use xlink:href="#path-9"></use>
        </mask>
    </defs>
    <g id="Welcome" stroke="none" stroke-width="1" fill="none" fill-rule="evenodd">
        <g id="Desktop-HD" transform="translate(-146.000000, -3295.000000)">
            <g id="//-Devices-+-Flat-Apple-Device-Fa" transform="translate(147.000000, 3295.000000)">
                <g id="//-Devices">
                    <g id="//-Thunderbolt-Display" transform="translate(32.614679, 0.000000)">
                        <g id="::-stand" transform="translate(70.516810, 133.060478)">
                            <rect id="Rectangle-80" fill="#B2B2B2" x="0" y="32.2025289" width="62.6816087" height="1.57467582"></rect>
                            <path d="M0.47918344,30.9391393 C0.709081973,30.333001 1.42185522,29.8416288 2.08446399,29.8416288 L60.5971447,29.8416288 C61.2538181,29.8416288 61.9760594,30.342315 62.2024252,30.9391393 L62.6816087,32.2025289 L-4.97075465e-17,32.2025289 L0.47918344,30.9391393 Z" id="Rectangle-77" fill="#C3C3C3"></path>
                            <mask id="mask-2" fill="white">
                                <use xlink:href="#path-1"></use>
                            </mask>
                            <use id="Mask" fill="#D8D8D8" xlink:href="#path-1"></use>
                            <rect id="Rectangle-123" fill="#B3B3B3" mask="url(#mask-2)" x="4.70112065" y="0.723860881" width="53.2793674" height="1.57467582"></rect>
                        </g>
                        <g id="::-base">
                            <rect id="dark-bezel" fill="#3C3C3C" x="0" y="0" width="203.715228" height="133.784339" rx="4.712256"></rect>
                            <path d="M101.858561,127.226648 C102.024532,127.290417 102.280802,127.375253 102.280802,127.375253 L102.847142,127.182759 C102.847142,127.182759 103.01275,127.136073 103.162999,127.136073 C103.313249,127.136073 103.654019,127.220459 103.805813,127.33147 C103.957607,127.442481 104.084783,127.615881 104.084783,127.615881 C104.084783,127.615881 103.748942,127.81762 103.648251,128.113221 C103.547561,128.408822 103.566619,128.510367 103.566619,128.510367 C103.566619,128.510367 103.559288,128.960188 103.79994,129.211823 C104.040592,129.463459 104.208174,129.520492 104.208174,129.520492 C104.208174,129.520492 104.119383,129.846952 103.950628,130.101586 C103.781873,130.356221 103.666871,130.503638 103.666871,130.503638 C103.666871,130.503638 103.471955,130.717909 103.324261,130.762708 C103.176567,130.807507 103.229329,130.803857 103.156573,130.803857 C103.083818,130.803857 102.933207,130.771704 102.933207,130.771704 L102.642481,130.664334 C102.642481,130.664334 102.471628,130.611008 102.353033,130.611008 C102.234437,130.611008 102.011232,130.674691 102.011232,130.674691 C102.011232,130.674691 101.77304,130.765898 101.698645,130.784878 C101.624249,130.803857 101.56693,130.807852 101.539452,130.807852 C101.511975,130.807852 101.414154,130.80676 101.31906,130.750723 C101.223966,130.694685 101.111139,130.622352 100.947885,130.405896 C100.784631,130.189441 100.423934,129.676551 100.316274,128.947033 C100.208614,128.217516 100.474017,127.799283 100.474017,127.799283 C100.474017,127.799283 100.782991,127.160963 101.49407,127.148518 C101.638558,127.145989 101.69259,127.162879 101.858561,127.226648 Z M102.246717,127.088562 C102.246717,127.088562 102.193917,126.63581 102.524152,126.322974 C102.854387,126.010137 103.211986,125.974066 103.211986,125.974066 C103.211986,125.974066 103.285295,126.26138 103.007602,126.690056 C102.729909,127.118732 102.246717,127.088562 102.246717,127.088562 Z" id="logo" fill="#FFFFFF"></path>
                            <rect id="camera-on-light" fill="#61FFB2" x="105.775215" y="4.72402747" width="1.56704022" height="1.57467582" rx="4.712256"></rect>
                            <rect id="camera" fill="#5C5C5C" x="100.290574" y="3.93668956" width="3.13408043" height="3.14935165" rx="4.712256"></rect>
                            <rect id="microphone" fill="#545454" x="96.3729733" y="4.72402747" width="1.56704022" height="1.57467582" rx="4.712256"></rect>
                        </g>
                        <rect id="wallpaper" fill="#69AFE9" x="10.9692815" y="11.0175338" width="181.776665" height="111.801984"></rect>
                        <g id="::-screen" transform="translate(67.382729, 113.328402)">
                            <g id="::-contents" transform="translate(0.000000, 0.048257)"></g>
                        </g>
                    </g>
                    <g id="paint_palette" transform="translate(118.500000, 40.341935)">
                        <g id="Слой_1">
                            <path d="M20.2635,0 C10.9139587,0 0.227215596,5.40145806 0.227215596,20.6583419 C0.227215596,31.7371097 8.52547706,43.6129032 21.2201972,43.6129032 L21.4104495,43.6129032 C26.1776284,43.5267677 31.3090046,40.4313419 31.3090046,33.8447032 C31.3090046,32.5832 30.8404404,31.4906968 30.4294954,30.5279419 C30.3186055,30.2738968 30.2131514,30.0242129 30.1163945,29.7712581 C29.1770917,27.3998065 30.2131514,26.5319097 32.6483807,24.7939355 C35.4064954,22.8248129 39.1854495,20.1295355 39.1365275,12.9977355 C39.1365275,8.75747097 34.5237248,0 20.2635,0 L20.2635,0 Z M20.8723073,38.3793548 C18.4359908,38.3793548 16.5225963,36.4603871 16.5225963,34.0191548 C16.5225963,31.5757419 18.4359908,29.6567742 20.8723073,29.6567742 C23.3053624,29.6567742 25.2187569,31.5757419 25.2187569,34.0191548 C25.2187569,36.4603871 23.3064495,38.3793548 20.8723073,38.3793548 L20.8723073,38.3793548 Z" id="Shape" stroke="#826100" stroke-width="0.5454" fill="#FFC107"></path>
                            <ellipse id="Oval" fill="#9C27B0" cx="30.983945" cy="13.6290323" rx="3.80504587" ry="3.81612903"></ellipse>
                            <ellipse id="Oval" fill="#2196F3" cx="21.1995413" cy="7.08709677" rx="3.80504587" ry="3.81612903"></ellipse>
                            <ellipse id="Oval" fill="#4CAF50" cx="10.3279817" cy="12.5387097" rx="3.80504587" ry="3.81612903"></ellipse>
                            <ellipse id="Oval" fill="#FF3D00" cx="9.24082569" cy="24.5322581" rx="3.80504587" ry="3.81612903"></ellipse>
                        </g>
                    </g>
                    <g id="//-MacBook-Pro-15" transform="translate(0.000000, 79.593548)">
                        <rect id="Rectangle-117" fill="#3D3D3D" x="11.7528016" y="0" width="133.198418" height="81.8445369" rx="3.141504"></rect>
                        <g id="::-base" transform="translate(0.000000, 81.844537)">
                            <g id="Mask">
                                <use fill="#D3D3D3" fill-rule="evenodd" xlink:href="#path-3"></use>
                                <use fill="black" fill-opacity="1" filter="url(#filter-4)" xlink:href="#path-3"></use>
                                <use stroke="#A8A8A8" stroke-width="0.5454" xlink:href="#path-3"></use>
                            </g>
                            <path d="M147.30178,2.3609001 L152.002901,2.3609001 L152.002901,3.14786681 L147.30178,3.14786681 L147.30178,2.3609001 Z M70.5168098,0 L86.1872119,0 L86.1872119,1.18045005 C86.1872119,1.83239461 85.6658296,2.3609001 85.0093849,2.3609001 L71.6946368,2.3609001 C71.0441409,2.3609001 70.5168098,1.83693985 70.5168098,1.18045005 L70.5168098,0 Z" id="Combined-Shape" stroke="#8A8A8A" stroke-width="0.5454" fill="#B2B2B2"></path>
                        </g>
                        <rect id="macbook-label" fill="#626262" x="74.4344103" y="79.4836368" width="9.4022413" height="0.786966701"></rect>
                        <g id="::-screen" transform="translate(17.237442, 5.508767)" fill="#BFE969">
                            <rect id="wallpaper" x="0" y="0" width="122.229137" height="71.6139698"></rect>
                        </g>
                        <ellipse id="webcam" fill="#5C5C5C" cx="78.7437709" cy="2.75438345" rx="1.17528016" ry="1.18045005"></ellipse>
                    </g>
                    <g id="source_code" transform="translate(56.532110, 106.851613)" stroke-width="0.5454">
                        <g id="Layer_1">
                            <g id="Group" transform="translate(0.000000, 5.451613)" stroke="#0F163A" fill="#3F51B5">
                                <path d="M34.7889908,21.8064516 L31.5275229,19.0806452 L38.9201835,10.9032258 L31.5275229,2.72580645 L34.7889908,0 L44.5733945,10.9032258 L34.7889908,21.8064516 Z M9.78440367,21.8064516 L0,10.9032258 L9.78440367,0 L13.0458716,2.72580645 L5.54449541,10.9032258 L13.0458716,19.0806452 L9.78440367,21.8064516 Z" id="Combined-Shape"></path>
                            </g>
                            <polygon id="Shape" stroke="#17629D" fill="#2196F3" points="18.4816514 32.7096774 14.3504587 31.2922581 25.0045872 0 29.1357798 1.41741935"></polygon>
                        </g>
                    </g>
                    <g id="//-iPad-" transform="translate(134.807339, 97.038710)">
                        <rect id="main-body" fill="#3D3D3D" x="0" y="0" width="52.4958473" height="70.8270031" rx="3.141504"></rect>
                        <use id="home-button" stroke="#505050" mask="url(#mask-6)" stroke-width="1.570752" xlink:href="#path-5"></use>
                        <rect id="screen" fill="#E9D869" x="3.13408043" y="7.08270031" width="46.2276864" height="56.6616025"></rect>
                        <rect id="camera" fill="#565656" x="26.6396837" y="2.3609001" width="2.35056033" height="2.3609001" rx="4.712256"></rect>
                        <rect id="microphone" fill="#747474" x="24.2891234" y="3.14786681" width="0.783520108" height="0.786966701" rx="4.712256"></rect>
                    </g>
                    <g id="earth_element" transform="translate(147.853211, 117.754839)">
                        <g id="Слой_1">
                            <path d="M13.9155963,22.5119545 C13.9155963,22.5119545 21.7431193,5.19593226 24.3522936,5.19506641 C26.9614679,5.19420057 34.7889908,22.5119545 34.7889908,22.5119545 L13.9155963,22.5119545 L13.9155963,22.5119545 Z" id="Shape" stroke="#63514B" stroke-width="0.5454" fill="#A1887F"></path>
                            <path d="M0,22.5119545 C0,22.5119545 9.56697248,0.000865844402 12.1761468,0 C14.7853211,-0.000865844402 24.3522936,22.5119545 24.3522936,22.5119545 L0,22.5119545 L0,22.5119545 Z" id="Shape" stroke="#34231D" stroke-width="0.5454" fill="#795548"></path>
                            <rect id="Rectangle-path" fill="#7CB342" x="0" y="22.5119545" width="34.7889908" height="6.92675522"></rect>
                            <path d="M34.7889908,22.5119545 L0,22.5119545 C0,22.5119545 3.47889908,20.7802657 17.3944954,20.7802657 C31.3100917,20.7802657 34.7889908,22.5119545 34.7889908,22.5119545 L34.7889908,22.5119545 Z" id="Shape" fill="#7CB342"></path>
                            <path d="M34.7889908,27.7070209 L34.7889908,29.4387097 L0,29.4387097 L0,27.7070209 C0,27.7070209 5.21834862,25.1094877 17.3944954,25.1094877 C29.5706422,25.1094877 34.7889908,27.7070209 34.7889908,27.7070209 L34.7889908,27.7070209 Z" id="Shape" fill="#9CCC65"></path>
                        </g>
                    </g>
                    <g id="//-iPhone-6" transform="translate(180.467890, 111.212903)">
                        <rect id="main-body" fill="#3D3D3D" x="0" y="0" width="29.1484548" height="56.3847068" rx="1.570752"></rect>
                        <use id="home-button" stroke="#6A6A6A" mask="url(#mask-8)" stroke-width="1.570752" xlink:href="#path-7"></use>
                        <rect id="screen" fill="#BB69E9" x="2.1591448" y="7.59024899" width="24.8301652" height="41.2042088"></rect>
                        <rect id="microphone" fill="#A1A1A1" x="9.7161516" y="3.25296385" width="1.0795724" height="1.08432128" rx="4.712256"></rect>
                        <rect id="Rectangle-267" fill="#121212" x="11.8752964" y="3.25296385" width="5.397862" height="1.08432128"></rect>
                        <g id="GPS_device" transform="translate(6.522936, 19.625806)" stroke-width="0.5454">
                            <g id="Layer_1">
                                <polygon id="Shape" stroke="#1D2B37" fill="#90CAF9" points="8.15366972 14.6332767 0 16.3548387 8.15366972 0"></polygon>
                                <polygon id="Shape" stroke="#1E2C37" fill="#2196F3" points="8.15366972 14.6332767 16.3073394 16.3548387 8.15366972 0"></polygon>
                            </g>
                        </g>
                    </g>
                    <g id="//-Apple-Watch" transform="translate(203.298165, 139.561290)">
                        <use id="body" stroke="#252525" mask="url(#mask-10)" stroke-width="1.570752" fill="#3D3D3D" xlink:href="#path-9"></use>
                        <rect id="screen" fill="#000000" x="2.68635466" y="8.09451464" width="12.088596" height="12.141772"></rect>
                        <polygon id="glare" fill-opacity="0.12" fill="#FFFFFF" points="2.68635466 8.09451464 14.7749506 8.09451464 2.68635466 20.2362866"></polygon>
                        <g id="::-strap" transform="translate(4.029532, 0.000000)" stroke="#A5A5A5" stroke-width="0.5454" fill="#D3D3D3">
                            <path d="M0,22.9344582 L9.4022413,22.9344582 L9.4022413,26.7699552 C9.4022413,27.6319867 8.69554506,28.3308012 7.8285175,28.3308012 L1.5737238,28.3308012 C0.704580145,28.3308012 0,27.6253236 0,26.7699552 L0,22.9344582 Z M0,1.56084601 C0,0.698814562 0.706696243,0 1.5737238,0 L7.8285175,0 C8.69766116,0 9.4022413,0.70547762 9.4022413,1.56084601 L9.4022413,5.39634309 L0,5.39634309 L0,1.56084601 Z" id="Combined-Shape"></path>
                        </g>
                        <g id="::-buttons" transform="translate(17.461305, 9.443600)" fill="#A9A9A9">
                            <rect id="Rectangle-216" x="0" y="0" width="1.34317733" height="4.04725732"></rect>
                            <rect id="Rectangle-216" x="0" y="5.39634309" width="0.392688" height="4.04725732"></rect>
                        </g>
                        <g id="fire_element" transform="translate(6.522936, 10.903226)">
                            <g id="Слой_1">
                                <path d="M5.43577982,3.95959253 C5.43577982,5.4048438 4.2388211,6.54193548 2.71770872,6.54193548 C1.19659633,6.54193548 0,5.4048438 0,3.95959253 C0,2.51434126 2.44229587,1.3083871 2.16688303,0 C2.71788991,0 5.43577982,1.86634533 5.43577982,3.95959253 L5.43577982,3.95959253 Z" id="Shape" fill="#DD2C00"></path>
                                <path d="M4.34862385,4.64821732 C4.34862385,3.34000238 2.71788991,2.06587436 2.71788991,2.06587436 C2.71788991,3.11258404 1.08715596,3.6016798 1.08715596,4.64821732 C1.08715596,5.51519593 1.80522248,6.19762309 2.71788991,6.19762309 C3.63055734,6.19762309 4.34862385,5.51519593 4.34862385,4.64821732 L4.34862385,4.64821732 Z" id="Shape" fill="#FF5722"></path>
                                <path d="M1.81174541,5.23458132 C1.81192661,4.64821732 2.71788991,4.31268489 2.71788991,3.78743633 C2.71788991,3.78743633 3.62367202,4.44713888 3.62367202,5.23458132 C3.62367202,5.66927572 3.21834404,6.02202377 2.71770872,6.02202377 C2.21707339,6.02202377 1.81156422,5.66944788 1.81174541,5.23458132 L1.81174541,5.23458132 Z" id="Shape" fill="#FFC107"></path>
                            </g>
                        </g>
                    </g>
                </g>
            </g>
        </g>
    </g>
</svg>