<?xml version="1.0" encoding="UTF-8" standalone="no"?>
<svg width="244px" height="201px" viewBox="0 0 244 201" version="1.1" xmlns="http://www.w3.org/2000/svg" xmlns:xlink="http://www.w3.org/1999/xlink">
    <!-- Generator: Sketch 3.7.2 (28276) - http://www.bohemiancoding.com/sketch -->
    <title>Group 3</title>
    <desc>Created with Sketch.</desc>
    <defs></defs>
    <g id="Welcome" stroke="none" stroke-width="1" fill="none" fill-rule="evenodd">
        <g id="Desktop-HD" transform="translate(-143.000000, -3279.000000)">
            <g id="Group-3" transform="translate(144.000000, 3280.000000)">
                <g id="time" transform="translate(45.281703, 0.000000)">
                    <g id="Слой_1">
                        <g id="Group" transform="translate(53.229089, 20.483133)" fill="#3949AB">
                            <rect id="Rectangle-path" transform="translate(55.742723, 23.580566) rotate(38.956003) translate(-55.742723, -23.580566) " x="47.5539372" y="13.3393816" width="16.3775707" height="20.4823692"></rect>
                            <rect id="Rectangle-path" x="0" y="0" width="24.5672718" height="16.3865062"></rect>
                        </g>
                        <ellipse id="Oval" fill="#EEEEEE" cx="65.5127249" cy="98.3190371" rx="55.2763616" ry="55.3044584"></ellipse>
                        <g id="Group" transform="translate(27.153602, 73.739278)" stroke="#000000" fill="#263238">
                            <path d="M34.5695702,14.7336169 C37.5522764,13.5514083 41.0303319,13.7843297 43.9358933,15.6654999 C48.7510786,18.8076125 50.1514131,25.2638959 47.064126,30.122495 C43.9891224,34.9851907 37.5688754,36.3821403 32.7659737,33.2564143 C29.8524216,31.3831715 28.1908378,28.28124 28.011346,25.0485518 L0.59922581,0 L34.5695702,14.7336169 Z" id="Combined-Shape"></path>
                        </g>
                        <path d="M63.6497068,101.149806 C65.2547686,102.178059 67.3880267,101.711044 68.4034739,100.080587 C69.4352993,98.4706123 68.9726157,96.3116901 67.3593648,95.2834368 C65.7706813,94.2347004 63.621045,94.7099091 62.5892196,96.32398 C61.5655832,97.9462441 62.0323614,100.11336 63.6497068,101.149806" id="Shape" fill="#9FA8DA"></path>
                        <g id="Group" transform="translate(3.217143, 36.869639)" fill="#90A4AE">
                            <path d="M66.3532766,0.245797593 C64.8219166,0.143381929 63.3028403,0 61.7673858,0 C60.5554004,0 59.3679823,0.126995423 58.164186,0.192541448 L58.164186,20.4831327 L66.3532766,20.4831327 L66.3532766,0.245797593 L66.3532766,0.245797593 Z" id="Shape"></path>
                            <path d="M66.3532766,102.661461 C64.8219166,102.559046 63.3028403,102.415664 61.7673858,102.415664 C60.5554004,102.415664 59.3679823,102.542659 58.164186,102.608205 L58.164186,122.898796 L66.3532766,122.898796 L66.3532766,102.661461 L66.3532766,102.661461 Z" id="Shape"></path>
                            <path d="M1.08622438,65.5460247 C0.983860744,64.0138864 0.840551658,62.4940379 0.840551658,60.957803 C0.840551658,59.7452015 0.967482563,58.5571798 1.03299529,57.3527716 L21.3132782,57.3527716 L21.3132782,65.5460247 L1.08622438,65.5460247 L1.08622438,65.5460247 Z" id="Shape"></path>
                            <path d="M103.449857,65.5460247 C103.347493,64.0138864 103.204184,62.4940379 103.204184,60.957803 C103.204184,59.7452015 103.331115,58.5571798 103.396628,57.3527716 L123.676911,57.3527716 L123.676911,65.5460247 L103.449857,65.5460247 L103.449857,65.5460247 Z" id="Shape"></path>
                            <path d="M96.1574719,10.3316921 C94.8758792,9.47959383 93.6311374,8.60701237 92.2963156,7.84503983 C91.2440175,7.24693236 90.1548684,6.76762705 89.0739085,6.22277572 L79.0177052,23.8423665 L86.1258359,27.90622 L96.1574719,10.3316921 L96.1574719,10.3316921 Z" id="Shape"></path>
                            <path d="M45.3851101,99.2612612 C44.1076119,98.4132595 42.8587756,97.5365814 41.5280484,96.7787055 C40.4716557,96.1765014 39.3825066,95.6971961 38.3015467,95.1564414 L28.2453434,112.776032 L35.3534741,116.839886 L45.3851101,99.2612612 L45.3851101,99.2612612 Z" id="Shape"></path>
                            <path d="M95.99369,85.4433399 C96.6611009,84.0627767 97.2916609,82.6699237 98.0573409,81.3385201 C98.6551445,80.285687 99.3553117,79.3188832 100.010439,78.3029198 L117.625173,88.3683312 L113.563384,95.4800749 L95.99369,85.4433399 L95.99369,85.4433399 Z" id="Shape"></path>
                            <path d="M116.630198,33.0925492 C115.917748,31.7283726 115.250337,30.3600993 114.4519,29.0450822 C113.82134,28.0127323 113.092511,27.0705082 112.412817,26.0668347 L95.0969846,36.6279379 L99.3594063,43.6249761 L116.630198,33.0925492 L116.630198,33.0925492 Z" id="Shape"></path>
                            <path d="M29.2198452,86.3937572 C28.5114888,85.0336772 27.8399834,83.6613073 27.0415471,82.3544834 C26.4109871,81.3139403 25.6862526,80.3717162 25.0024635,79.3721393 L7.68663141,89.9332425 L11.9490531,96.9302807 L29.2198452,86.3937572 L29.2198452,86.3937572 Z" id="Shape"></path>
                            <path d="M26.9228053,11.3148825 C28.1798307,10.4341078 29.4000052,9.52056009 30.7143542,8.72171791 C31.7502742,8.09083743 32.8312341,7.58285574 33.8917214,7.00932802 L44.4433646,24.3339617 L37.4498812,28.5944533 L26.9228053,11.3148825 L26.9228053,11.3148825 Z" id="Shape"></path>
                            <path d="M80.2010288,98.769666 C81.4539597,97.8847947 82.6741342,96.971247 83.9925778,96.1724048 C85.0244032,95.5415243 86.1053631,95.0335426 87.1658504,94.4559183 L97.7215882,111.784649 L90.7281048,116.04514 L80.2010288,98.769666 L80.2010288,98.769666 Z" id="Shape"></path>
                        </g>
                        <g id="Group" stroke="#5E689D" fill="#7986CB">
                            <path d="M116.633123,47.6273802 L103.899087,37.3243645 C102.138433,35.8987384 101.868193,33.3219603 103.289,31.5645075 L111.015407,22.0070778 C112.440309,20.2414318 115.015778,19.9710544 116.772338,21.3966804 L129.506374,31.6996962 C131.267028,33.1253222 131.541363,35.7021003 130.116461,37.4595531 L122.390054,47.0169829 C120.969247,48.7785323 118.389683,49.0530063 116.633123,47.6273802 Z" id="Shape"></path>
                            <path d="M65.5127249,32.7730124 C29.3374171,32.7730124 0,62.1253416 0,98.3190371 C0,134.512733 29.3374171,163.865062 65.5127249,163.865062 C101.688033,163.865062 131.02545,134.512733 131.02545,98.3190371 C131.02545,62.1253416 101.688033,32.7730124 65.5127249,32.7730124 L65.5127249,32.7730124 Z M65.5127249,151.575182 C36.1097951,151.575182 12.2836359,127.736912 12.2836359,98.3190371 C12.2836359,68.9052585 36.1097951,45.062892 65.5127249,45.062892 C94.9156548,45.062892 118.741814,68.9052585 118.741814,98.3190371 C118.741814,127.736912 94.9156548,151.575182 65.5127249,151.575182 L65.5127249,151.575182 Z" id="Shape"></path>
                            <path d="M81.8909061,24.5797593 L49.1345437,24.5797593 C46.8702601,24.5797593 45.0399984,22.7485672 45.0399984,20.4831327 L45.0399984,4.09662655 C45.0399984,1.83119207 46.8702601,0 49.1345437,0 L81.8909061,0 C84.1551897,0 85.9854514,1.83119207 85.9854514,4.09662655 L85.9854514,20.4831327 C85.9854514,22.7485672 84.1551897,24.5797593 81.8909061,24.5797593 Z" id="Shape"></path>
                        </g>
                    </g>
                </g>
                <g id="hourglass" transform="translate(3.628170, 4.681859)">
                    <g id="Слой_1">
                        <g id="Group" transform="translate(3.760388, 2.456532)" stroke="#98B6D0" fill="#BBDEFB">
                            <path d="M14.2344763,24.4649809 C17.5769627,27.9177797 22.56233,33.813392 22.56233,38.2623561 C22.56233,44.9548393 17.5121285,48.8610312 11.281165,48.8610312 C5.05020153,48.8610312 0,44.9548393 0,38.2623561 C0,33.813392 4.98536729,27.9177797 8.32785371,24.4649809 C4.98536729,21.0124803 0,15.1171629 0,10.6673041 C0,3.97482086 5.04894807,0.0672828942 11.281165,0.0672828942 C17.5133819,0.0672828942 22.56233,3.97482086 22.56233,10.6673041 C22.56233,15.1171629 17.5769627,21.0124803 14.2344763,24.4649809 Z" id="Combined-Shape"></path>
                        </g>
                        <g id="Group" transform="translate(6.267314, 16.152413)" fill="#FF9800">
                            <path d="M0.876170482,0 C2.42419701,3.19413972 5.7721961,7.15148096 8.77423945,10.0696836 C11.7762828,7.15013493 15.1230284,3.19413972 16.6723084,0 L0.876170482,0 L0.876170482,0 Z" id="Shape"></path>
                            <ellipse id="Oval" cx="8.77423945" cy="13.4616904" rx="1.25346278" ry="1.34603444"></ellipse>
                            <ellipse id="Oval" cx="8.77423945" cy="17.4997937" rx="1.25346278" ry="1.34603444"></ellipse>
                            <path d="M8.77423945,32.4730808 C11.6672315,32.4730808 14.8974051,31.4056755 16.5106117,28.6718795 C13.2027234,24.1034387 8.77423945,20.1905165 8.77423945,20.1905165 C8.77423945,20.1905165 4.34575545,24.1034387 1.03912064,28.6718795 C2.65107378,31.4056755 5.88124736,32.4730808 8.77423945,32.4730808 L8.77423945,32.4730808 Z" id="Shape"></path>
                        </g>
                        <g id="Group" transform="translate(3.760388, 0.000000)" fill="#6D4C41">
                            <path d="M22.56233,47.1112053 C22.56233,46.3668482 22.0020322,45.7651708 21.3088672,45.7651708 L1.25346278,45.7651708 C0.561551325,45.7651708 0,46.3668482 0,47.1112053 L0,52.495343 C0,53.2397001 0.561551325,53.8413775 1.25346278,53.8413775 L21.3088672,53.8413775 C22.0020322,53.8413775 22.56233,53.2397001 22.56233,52.495343 L22.56233,47.1112053 L22.56233,47.1112053 Z" id="Shape"></path>
                            <path d="M22.56233,6.73017218 C22.56233,7.47452922 22.0020322,8.07620662 21.3088672,8.07620662 L1.25346278,8.07620662 C0.561551325,8.07620662 0,7.47452922 0,6.73017218 L0,1.34603444 C0,0.601677393 0.561551325,0 1.25346278,0 L21.3088672,0 C22.0020322,0 22.56233,0.601677393 22.56233,1.34603444 L22.56233,6.73017218 L22.56233,6.73017218 Z" id="Shape"></path>
                        </g>
                        <g id="Group" stroke="#533F39" fill="#8D6E63">
                            <path d="M30.0831067,51.1493086 C30.0831067,50.4049515 29.5228088,49.8032741 28.8296439,49.8032741 L1.25346278,49.8032741 C0.561551325,49.8032741 0,50.4049515 0,51.1493086 L0,52.495343 C0,53.2397001 0.561551325,53.8413775 1.25346278,53.8413775 L28.8296439,53.8413775 C29.5228088,53.8413775 30.0831067,53.2397001 30.0831067,52.495343 L30.0831067,51.1493086 L30.0831067,51.1493086 Z" id="Shape"></path>
                            <path d="M30.0831067,2.69206887 C30.0831067,3.43642592 29.5228088,4.03810331 28.8296439,4.03810331 L1.25346278,4.03810331 C0.561551325,4.03810331 0,3.43642592 0,2.69206887 L0,1.34603444 C0,0.601677393 0.561551325,0 1.25346278,0 L28.8296439,0 C29.5228088,0 30.0831067,0.601677393 30.0831067,1.34603444 L30.0831067,2.69206887 L30.0831067,2.69206887 Z" id="Shape"></path>
                        </g>
                    </g>
                </g>
                <g id="bell" transform="translate(203.639491, 25.750224)">
                    <g id="Слой_1">
                        <g id="Group" transform="translate(7.742099, 0.000000)">
                            <ellipse id="Oval" stroke="#DB8509" stroke-width="0.918" cx="27.2961125" cy="3.98524759" rx="3.27828727" ry="3.32658396"></ellipse>
                            <ellipse id="Oval" stroke="#B06800" fill="#DB8509" cx="4.88792632" cy="37.7012849" rx="4.37104969" ry="4.43544528"></ellipse>
                        </g>
                        <g id="Group" transform="translate(0.000000, 2.217723)" stroke="#D39E00" fill="#FFC107">
                            <path d="M3.34738185,11.794487 C7.00196956,10.7044178 13.1918195,9.82190909 14.946682,8.04035344 C14.9517794,8.03518094 14.956933,8.03008814 14.9621423,8.02507474 L19.583273,3.33545485 C23.4232401,-0.56219269 29.6508932,-0.56219269 33.4919531,3.33545485 C37.333013,7.23310239 37.333013,13.5525031 33.4919531,17.4490417 L28.8874952,22.1217418 C28.8774916,22.1330923 28.8671458,22.1441957 28.8564549,22.1550492 C27.0992892,23.9372621 26.2304437,30.2163329 25.1568635,33.9243898 C25.0986334,34.8903702 24.7909467,35.6880311 24.2198639,36.2675272 C24.1822256,36.3057201 24.1436533,36.342752 24.1041612,36.3786269 C24.0784684,36.408882 24.0525659,36.43729 24.026445,36.4637957 C24.0018091,36.4888122 23.9716816,36.5074582 23.93625,36.5199241 C21.1781723,38.6679458 14.5354192,35.8490967 7.99343474,29.2107338 C1.45133062,22.5733196 -1.32657519,15.8315829 0.790478343,13.0328947 C0.802731622,12.9969941 0.821068338,12.9664727 0.845675731,12.9415205 C0.871797203,12.9150142 0.899793915,12.8887289 0.929611479,12.862656 C0.964964492,12.822583 1.00145756,12.7834436 1.03909468,12.745252 C1.61001358,12.1659222 2.39580638,11.8537155 3.34738185,11.794487 Z" id="Combined-Shape"></path>
                        </g>
                        <path d="M29.9612377,3.26227001 C27.5090788,3.14694843 24.7881004,4.19371351 22.2889527,6.72857049 L16.1093812,12.9991813 C15.2526555,13.8064323 5.64181,16.1760689 0.122267008,17.2882568 C0.0588867872,18.2352244 0.242470874,19.3463035 0.648978495,20.5727041 C5.30305365,19.6468049 16.6666901,17.1363428 18.4249448,15.3544027 L24.6067018,9.08046535 C26.8381227,6.8172794 29.4793295,4.42213895 31.9588074,4.28131356 C31.3271907,3.85772853 30.6551418,3.52396128 29.9612377,3.26227001 L29.9612377,3.26227001 Z" id="Shape" fill="#FFE082"></path>
                    </g>
                </g>
                <g id="property_time" transform="translate(186.440895, 142.796697)">
                    <g id="Layer_1">
                        <path d="M45.2403643,10.5641945 C45.2403643,11.356509 44.7081247,11.8847188 43.9097653,11.8847188 L1.33059895,11.8847188 C0.53223958,11.8847188 0,11.356509 0,10.5641945 L0,1.32052431 C0,0.528209723 0.53223958,0 1.33059895,0 L43.9097653,0 C44.7081247,0 45.2403643,0.528209723 45.2403643,1.32052431 L45.2403643,10.5641945 L45.2403643,10.5641945 Z" id="Shape" stroke="#000000" fill="#3F51B5"></path>
                        <rect id="Rectangle-path" stroke="#4F6F89" fill="#BBDEFB" x="0" y="6.60262154" width="45.2403643" height="38.2952049"></rect>
                        <g id="Group" transform="translate(9.314193, 13.205243)" stroke="#084078" fill="#1976D2">
                            <path d="M5.3223958,5.28209723 L26.611979,5.28209723 L26.611979,7.92314585 L5.3223958,7.92314585 L5.3223958,5.28209723 Z M23.1524217,10.5641945 L5.3223958,10.5641945 L5.3223958,13.2052431 L19.2936848,13.2052431 C20.3581639,12.1488236 21.6887629,11.2244566 23.1524217,10.5641945 Z M5.3223958,0 L26.611979,0 L26.611979,2.64104862 L5.3223958,2.64104862 L5.3223958,0 Z M17.0316666,15.8462917 L5.3223958,15.8462917 L5.3223958,18.4873403 L15.7010676,18.4873403 C15.9671874,17.5629733 16.499427,16.6386063 17.0316666,15.8462917 Z M0,0 L2.6611979,0 L2.6611979,2.64104862 L0,2.64104862 L0,0 Z M0,5.28209723 L2.6611979,5.28209723 L2.6611979,7.92314585 L0,7.92314585 L0,5.28209723 Z M0,21.1283889 L2.6611979,21.1283889 L2.6611979,23.7694375 L0,23.7694375 L0,21.1283889 Z M5.3223958,21.1283889 L5.3223958,23.7694375 L14.6365884,23.7694375 C14.6365884,22.8450705 14.7696483,21.9207035 14.9027082,21.1283889 L5.3223958,21.1283889 Z M0,10.5641945 L2.6611979,10.5641945 L2.6611979,13.2052431 L0,13.2052431 L0,10.5641945 Z M0,15.8462917 L2.6611979,15.8462917 L2.6611979,18.4873403 L0,18.4873403 L0,15.8462917 Z" id="Combined-Shape"></path>
                        </g>
                        <path d="M53.223958,38.2952049 C53.223958,45.5580886 47.2362627,51.500448 39.9179685,51.500448 C32.5996743,51.500448 26.611979,45.5580886 26.611979,38.2952049 C26.611979,31.0323212 32.5996743,25.0899618 39.9179685,25.0899618 C47.2362627,25.0899618 53.223958,31.0323212 53.223958,38.2952049" id="Shape" stroke="#005660" fill="#00ACC1"></path>
                        <path d="M49.2321611,38.2952049 C49.2321611,43.4452497 45.1073044,47.5388751 39.9179685,47.5388751 C34.7286326,47.5388751 30.6037758,43.4452497 30.6037758,38.2952049 C30.6037758,33.1451601 34.7286326,29.0515348 39.9179685,29.0515348 C45.1073044,29.0515348 49.2321611,33.1451601 49.2321611,38.2952049" id="Shape" fill="#EEEEEE"></path>
                        <path d="M45.7726039,42.3888303 L41.9138669,38.5593098 L41.9138669,38.2952049 C41.9138669,37.7669952 41.6477471,37.2387855 41.2485674,36.8426282 L41.2485674,31.6925834 L38.5873695,31.6925834 L38.5873695,36.8426282 C38.1881899,37.2387855 37.9220701,37.7669952 37.9220701,38.2952049 C37.9220701,39.3516244 38.8534893,40.2759914 39.9179685,40.2759914 L40.0510284,40.2759914 L43.9097653,44.1055119 L45.7726039,42.3888303 L45.7726039,42.3888303 Z" id="Shape" fill="#000000"></path>
                    </g>
                </g>
                <g id="alarm_clock" transform="translate(0.000000, 149.819485)">
                    <g id="Layer_1">
                        <g id="Group" transform="translate(5.533682, 41.338686)" stroke="#000000" fill="#37474F">
                            <path d="M34.9689319,7.37392778 L30.5419864,2.90488064 L32.8661328,0.558630893 L37.2930783,5.02767803 C37.9571201,5.6980351 37.9571201,6.70357071 37.2930783,7.37392778 C36.7397101,7.93255867 35.6329737,7.93255867 34.9689319,7.37392778 Z M2.87357728,7.37392778 L7.30052275,2.90488064 L4.97637638,0.558630893 L0.549430913,5.02767803 C-0.114610907,5.6980351 -0.114610907,6.70357071 0.549430913,7.37392778 C1.1027991,7.93255867 2.20953546,7.93255867 2.87357728,7.37392778 Z" id="Combined-Shape"></path>
                        </g>
                        <ellipse id="Oval" stroke="#340303" fill="#C62828" cx="24.4549364" cy="25.6970211" rx="22.1347273" ry="22.3452357"></ellipse>
                        <ellipse id="Oval" stroke="#FFFFFF" fill="#EEEEEE" cx="24.4549364" cy="25.6970211" rx="17.7077819" ry="17.8761886"></ellipse>
                        <rect id="Rectangle-path" fill="#E53935" transform="translate(19.551309, 31.009975) rotate(225.000000) translate(-19.551309, -31.009975) " x="19.3593105" y="23.7478434" width="0.383996317" height="14.5242639"></rect>
                        <g id="Group" transform="translate(22.241464, 11.172618)" fill="#000000">
                            <rect id="Rectangle-path" x="1.10673637" y="0" width="2.21347273" height="14.5244032"></rect>
                            <rect id="Rectangle-path" transform="translate(5.771625, 18.116003) rotate(135.000000) translate(-5.771625, -18.116003) " x="4.49889" y="12.9766483" width="2.54546923" height="10.2787098"></rect>
                            <ellipse id="Oval" cx="2.21347273" cy="14.5244032" rx="2.21347273" ry="2.23452357"></ellipse>
                        </g>
                        <ellipse id="Oval" fill="#C62828" cx="24.4549364" cy="25.6970211" rx="1.10673637" ry="1.11726179"></ellipse>
                        <rect id="Rectangle-path" fill="#37474F" x="22.2414637" y="0" width="4.42694547" height="3.35178536"></rect>
                        <g id="Group" transform="translate(0.000000, 1.117262)" stroke="#000000" fill="#37474F">
                            <path d="M47.0323583,15.8651173 C49.7991992,11.9547011 49.3565047,6.48011835 45.9256219,3.01660682 C42.4947392,-0.446904714 37.071731,-0.893809428 33.1981537,1.89934503 L47.0323583,15.8651173 Z M1.87751455,15.8651173 C-0.889326363,11.9547011 -0.446631817,6.48011835 2.98425092,3.01660682 C6.41513365,-0.446904714 11.8381418,-0.893809428 15.7117191,1.89934503 L1.87751455,15.8651173 Z" id="Combined-Shape"></path>
                        </g>
                    </g>
                </g>
                <g id="multiply" opacity="0.9" transform="translate(33.000000, 11.000000)" stroke-width="0.9" fill="#D0011B">
                    <g id="Слой_1">
                        <g id="Group">
                            <rect id="Rectangle-path" stroke="#AB0015" transform="translate(85.349161, 85.115575) rotate(45.000000) translate(-85.349161, -85.115575) " x="79.101131" y="-28.8240239" width="12.4960597" height="227.879197"></rect>
                            <rect id="Rectangle-path" stroke="#AB0014" transform="translate(85.346802, 85.117328) rotate(135.000000) translate(-85.346802, -85.117328) " x="79.0987724" y="-28.822271" width="12.4960597" height="227.879197"></rect>
                        </g>
                    </g>
                </g>
            </g>
        </g>
    </g>
</svg>